<?xml version="1.0" encoding="UTF-8"?>
<svg id="Layer_2" data-name="Layer 2" xmlns="http://www.w3.org/2000/svg" viewBox="0 0 160.97 107.83">
  <defs>
    <style>
      .cls-1 {
        fill: #333;
        stroke-width: 0px;
      }
    </style>
  </defs>
  <g id="Layer_1-2" data-name="Layer 1">
    <g>
      <g>
        <path class="cls-1" d="m7.75,82.54h-1.53v-6.41h1.53v1.93c.04.11.04.22.07.33.04.11.04.22.07.33l.11.22c.29.62.76,1.13,1.42,1.53.62.4,1.35.58,2.18.58.51,0,1.02-.11,1.49-.29.47-.18.87-.47,1.2-.8.33-.33.62-.69.84-1.13.18-.44.29-.91.29-1.42,0-.25-.04-.55-.11-.8-.04-.25-.11-.4-.15-.47-.04-.11-.11-.22-.15-.33-.07-.07-.15-.15-.18-.26-.18-.29-.36-.58-.58-.84v-.04c-.11-.11-.18-.18-.22-.29-.07-.07-.15-.15-.18-.18l-.18-.18c-.29-.33-.62-.66-.98-.98-.4-.4-.76-.76-1.09-1.09-.33-.33-.66-.62-.95-.87-.04-.04-.11-.11-.15-.15-.04-.04-.11-.07-.15-.11-.47-.44-.91-.87-1.31-1.31-.4-.44-.73-.87-.98-1.31-.18-.25-.36-.55-.55-.84-.18-.25-.33-.55-.47-.8-.25-.47-.47-1.02-.66-1.57s-.25-1.09-.25-1.71v-.25c0-.84.11-1.6.33-2.33.15-.36.33-.73.58-1.13,0-.04.04-.11.07-.15.04-.04.11-.15.25-.29.36-.4.69-.73,1.02-.98l.22-.11c.4-.25.84-.47,1.38-.66.55-.18,1.16-.25,1.86-.25h.15c.22,0,.36,0,.47.04.87.04,1.57.18,2.08.44s.91.47,1.16.69c.22.04.36.07.44.04.18,0,.33-.25.4-.73h1.27v5.93h-1.27c.04-1.06-.07-1.93-.33-2.66-.04-.04-.04-.11-.04-.15-.04-.04-.04-.07-.07-.11-.11-.33-.25-.62-.51-.95-.33-.47-.8-.84-1.35-1.13-.58-.25-1.2-.4-1.86-.4-.47,0-.87.04-1.24.15-.84.22-1.49.62-2.04,1.24-.55.62-.8,1.31-.8,2.11.04.07.04.15.04.22,0,.11,0,.18.04.26.11.51.29,1.02.62,1.49t.07.07s0,.04.04.07c.4.66.95,1.31,1.64,2,.07.07.15.11.18.15.36.33.69.66,1.02.95l.84.87c.22.22.44.44.66.62.22.22.44.44.62.66.76.76,1.42,1.49,1.97,2.18.55.69.98,1.38,1.35,2,.04.11.11.22.15.29.04.11.11.18.15.29.22.4.4.84.55,1.31.11.47.18.98.18,1.46,0,.51-.07,1.06-.18,1.6-.11.25-.22.51-.33.76-.11.26-.25.55-.44.8-.25.4-.62.84-1.09,1.27-.04.04-.07.07-.11.07-.55.47-1.16.84-1.86,1.09-.69.25-1.46.4-2.22.4-.69,0-1.31-.11-1.93-.33-.62-.18-1.16-.47-1.67-.8-.11-.04-.22-.04-.29-.07-.07,0-.15,0-.22.04-.15,0-.25.11-.33.29v.87Z"/>
        <path class="cls-1" d="m25.55,82.14c-.69-.29-1.31-.69-1.82-1.24-.55-.55-.95-1.17-1.24-1.86-.33-.69-.47-1.42-.47-2.22v-18.75c-.07-.44-.33-.76-.76-1.02h4.37c-.44.25-.69.58-.76,1.02v20.61c0,.36.07.73.25,1.06.15.33.36.62.62.87.26.25.55.44.91.58.33.15.69.22,1.09.22.8,0,1.49-.26,2.08-.8.55-.55.84-1.16.84-1.93v-20.71c-.11-.4-.36-.69-.73-.91h4.4c-.44.25-.69.58-.76,1.02v18.75c0,.8-.15,1.53-.44,2.22-.33.69-.73,1.31-1.24,1.86-.55.55-1.16.95-1.86,1.24-.69.33-1.46.47-2.26.47s-1.53-.15-2.22-.47Z"/>
        <path class="cls-1" d="m40.07,82.61h-2.91c.18-.11.36-.29.47-.47.11-.18.18-.36.22-.55.04-.04.04-.11.04-.22v-23.08c0-.07,0-.15-.04-.18-.04-.22-.11-.4-.22-.58-.11-.18-.29-.33-.47-.44h3.24l6.84,20.13v-18.64c0-.4-.04-.69-.15-.87-.18-.29-.36-.51-.58-.62h2.91c-.4.22-.66.55-.73,1.02v24.5h-2.69l-6.63-19.62v18.6c.04.18.11.36.22.55.11.18.29.36.47.47Z"/>
        <path class="cls-1" d="m53.91,82.54h-1.53v-6.41h1.53v1.93c.04.11.04.22.07.33.04.11.04.22.07.33l.11.22c.29.62.76,1.13,1.42,1.53.62.4,1.35.58,2.18.58.51,0,1.02-.11,1.49-.29.47-.18.87-.47,1.2-.8s.62-.69.84-1.13c.18-.44.29-.91.29-1.42,0-.25-.04-.55-.11-.8-.04-.25-.11-.4-.15-.47-.04-.11-.11-.22-.15-.33-.07-.07-.15-.15-.18-.26-.18-.29-.36-.58-.58-.84v-.04c-.11-.11-.18-.18-.22-.29-.07-.07-.15-.15-.18-.18l-.18-.18c-.29-.33-.62-.66-.98-.98-.4-.4-.76-.76-1.09-1.09-.33-.33-.66-.62-.95-.87-.04-.04-.11-.11-.15-.15-.04-.04-.11-.07-.15-.11-.47-.44-.91-.87-1.31-1.31-.4-.44-.73-.87-.98-1.31-.18-.25-.36-.55-.55-.84-.18-.25-.33-.55-.47-.8-.25-.47-.47-1.02-.66-1.57s-.25-1.09-.25-1.71v-.25c0-.84.11-1.6.33-2.33.15-.36.33-.73.58-1.13,0-.04.04-.11.07-.15s.11-.15.25-.29c.36-.4.69-.73,1.02-.98l.22-.11c.4-.25.84-.47,1.38-.66s1.16-.25,1.86-.25h.15c.22,0,.36,0,.47.04.87.04,1.57.18,2.08.44.51.25.91.47,1.16.69.22.04.36.07.44.04.18,0,.33-.25.4-.73h1.27v5.93h-1.27c.04-1.06-.07-1.93-.33-2.66-.04-.04-.04-.11-.04-.15-.04-.04-.04-.07-.07-.11-.11-.33-.25-.62-.51-.95-.33-.47-.8-.84-1.35-1.13-.58-.25-1.2-.4-1.86-.4-.47,0-.87.04-1.24.15-.84.22-1.49.62-2.04,1.24-.55.62-.8,1.31-.8,2.11.04.07.04.15.04.22,0,.11,0,.18.04.26.11.51.29,1.02.62,1.49t.07.07s0,.04.04.07c.4.66.95,1.31,1.64,2,.07.07.15.11.18.15.36.33.69.66,1.02.95l.84.87c.22.22.44.44.66.62.22.22.44.44.62.66.76.76,1.42,1.49,1.97,2.18.55.69.98,1.38,1.35,2,.04.11.11.22.15.29.04.11.11.18.15.29.22.4.4.84.55,1.31.11.47.18.98.18,1.46,0,.51-.07,1.06-.18,1.6-.11.25-.22.51-.33.76-.11.26-.25.55-.44.8-.26.4-.62.84-1.09,1.27-.04.04-.07.07-.11.07-.55.47-1.17.84-1.86,1.09-.69.25-1.46.4-2.22.4-.69,0-1.31-.11-1.93-.33-.62-.18-1.17-.47-1.67-.8-.11-.04-.22-.04-.29-.07-.07,0-.15,0-.22.04-.15,0-.25.11-.33.29v.87Z"/>
        <path class="cls-1" d="m78.23,82.54h-10.81c.44-.25.69-.62.76-1.02v-23.37c-.07-.44-.33-.76-.76-1.02h10.81v3.17h-.36c-.11-.47-.29-.87-.62-1.2t-.04-.07s-.07-.04-.11-.07c-.47-.47-1.02-.76-1.67-.8h-4.37v9.97h4.15c.18-.11.36-.25.47-.4.04-.04.07-.04.11-.07,0,0,.04,0,.07-.04.29-.4.47-.84.58-1.24h.4v6.33h-.4c-.11-.4-.29-.8-.58-1.17-.04-.04-.07-.07-.07-.11-.04-.04-.07-.04-.11-.07l-.22-.22c-.07-.07-.15-.15-.25-.18h-4.15v10.52h4.37c.33-.04.66-.11.95-.26.26-.11.51-.29.73-.51.07-.07.11-.15.15-.18.29-.29.51-.69.62-1.17h.36v3.17Z"/>
        <path class="cls-1" d="m88.68,82.54h-3.46c.33-.25.55-.62.62-1.02v-23.08h-4.11c-.18,0-.36.07-.51.22-.15.15-.22.33-.22.55v-2.18h12.2v2.18c0-.22-.07-.4-.22-.55s-.33-.22-.51-.22h-3.79v23.04c.04.22.11.4.22.58.11.18.22.36.4.47l-.62-.04v.04Z"/>
        <path class="cls-1" d="m105.13,82.54c-.69,0-1.38-.15-2-.4-.62-.26-1.17-.62-1.64-1.09-.47-.44-.84-.98-1.09-1.6-.25-.62-.4-1.27-.4-1.97v-15.33c0-.69.15-1.35.4-1.97.25-.62.62-1.13,1.09-1.6.47-.47,1.02-.84,1.64-1.09.62-.25,1.31-.36,2-.36.62,0,1.24.11,1.82.33.55.22,1.06.51,1.53.91v-1.24h.98v4.62h-.44v-.73c0-.44-.07-.84-.22-1.2-.18-.36-.4-.69-.66-.98-.29-.26-.62-.47-.98-.66-.36-.15-.76-.22-1.16-.22-.84,0-1.57.29-2.15.87-.62.62-.91,1.35-.91,2.18v17.51c0,.87.29,1.6.87,2.22.55.62,1.24.91,2.08.91.55,0,1.06-.15,1.53-.44.44-.29.8-.69,1.06-1.16h1.06c-.44.73-1.06,1.31-1.82,1.78-.8.47-1.67.69-2.58.69Z"/>
        <path class="cls-1" d="m120.71,57.56c.69.33,1.35.73,1.89,1.27s.95,1.16,1.27,1.89c.33.73.47,1.49.47,2.29v13.62c0,.84-.15,1.6-.47,2.33-.33.73-.73,1.35-1.27,1.89-.55.55-1.2.95-1.89,1.27-.73.33-1.49.47-2.33.47s-1.6-.15-2.29-.47c-.73-.33-1.35-.73-1.89-1.27-.55-.55-.98-1.16-1.31-1.89-.33-.73-.47-1.49-.47-2.33v-13.62c0-.8.15-1.57.47-2.29.33-.73.76-1.35,1.31-1.89s1.16-.95,1.89-1.27c.69-.33,1.46-.47,2.29-.47s1.6.15,2.33.47Zm-.33,1.31c-.55-.58-1.24-.87-2.08-.87-.4,0-.76.07-1.09.22-.36.18-.66.4-.91.66-.25.26-.47.58-.62.95s-.22.76-.22,1.17v17.8c0,.4.07.8.22,1.16s.36.69.62.95c.26.25.55.47.91.62.33.18.69.26,1.09.26.84,0,1.53-.29,2.08-.87.55-.58.84-1.27.84-2.11v-17.8c0-.84-.29-1.53-.84-2.11Z"/>
        <path class="cls-1" d="m131.85,82.65l-.87-5.68-2.55-16.02-.47-2.91c-.11-.51-.36-.84-.76-1.02h4.15c-.33.25-.47.55-.44.95v.07l.07.47.26,1.57,2.55,15.95,2.08-11.07v-.07l.29-1.6.91-4.95c.04-.15.07-.25.07-.29v-.15c0-.33-.07-.62-.22-.87h2.51c-.33.25-.58.55-.76.95v.07l-.76,4.04-.69,3.82-.62,3.13-2.15,11.5-.36,2.11h-2.22Z"/>
        <path class="cls-1" d="m153.04,82.54h-10.81c.44-.25.69-.62.76-1.02v-23.37c-.07-.44-.33-.76-.76-1.02h10.81v3.17h-.36c-.11-.47-.29-.87-.62-1.2t-.04-.07s-.07-.04-.11-.07c-.47-.47-1.02-.76-1.67-.8h-4.37v9.97h4.15c.18-.11.36-.25.47-.4.04-.04.07-.04.11-.07,0,0,.04,0,.07-.04.29-.4.47-.84.58-1.24h.4v6.33h-.4c-.11-.4-.29-.8-.58-1.17-.04-.04-.07-.07-.07-.11-.04-.04-.07-.04-.11-.07l-.22-.22c-.07-.07-.15-.15-.25-.18h-4.15v10.52h4.37c.33-.04.66-.11.95-.26.26-.11.51-.29.73-.51.07-.07.11-.15.15-.18.29-.29.51-.69.62-1.17h.36v3.17Z"/>
      </g>
      <g>
        <path class="cls-1" d="m52.88,50.34c-.25.62-.59,1.17-1.04,1.64-.44.47-.98.85-1.6,1.13-.62.28-1.31.42-2.07.42s-1.44-.14-2.06-.41c-.62-.27-1.15-.65-1.6-1.11-.44-.47-.79-1.01-1.03-1.63-.24-.62-.36-1.27-.36-1.96s.12-1.34.37-1.96c.25-.62.59-1.17,1.04-1.64.44-.47.98-.85,1.6-1.13.62-.28,1.31-.42,2.07-.42s1.44.14,2.06.41c.62.27,1.15.65,1.6,1.11.44.47.79,1.01,1.03,1.63.24.62.36,1.27.36,1.96s-.12,1.35-.37,1.96Zm-1.08-3.54c-.19-.5-.47-.94-.82-1.3-.35-.37-.76-.66-1.24-.88-.48-.22-1-.33-1.57-.33s-1.09.11-1.57.32c-.48.21-.89.5-1.23.87s-.61.8-.8,1.3c-.19.5-.29,1.03-.29,1.6s.1,1.1.29,1.6c.19.5.47.94.82,1.3.35.37.76.66,1.24.88.48.22,1,.33,1.57.33s1.09-.11,1.57-.32c.48-.21.89-.5,1.23-.87s.61-.8.8-1.3c.19-.5.29-1.03.29-1.6s-.1-1.1-.29-1.6Z"/>
        <path class="cls-1" d="m62.46,53.35l-2.88-3.86h-2.84v3.86h-1.12v-9.93h4.27c.55,0,1.04.07,1.48.21.44.14.82.34,1.13.6.31.26.55.57.72.94.17.36.26.77.26,1.21,0,.42-.07.79-.2,1.11-.13.33-.32.61-.56.85-.24.24-.53.44-.86.6-.33.16-.69.27-1.08.34l3.05,4.05h-1.38Zm-.77-8.37c-.45-.35-1.07-.52-1.88-.52h-3.07v4.04h3.06c.37,0,.71-.05,1.02-.14.31-.1.58-.23.81-.41.23-.18.41-.39.53-.65.13-.26.19-.55.19-.87,0-.63-.22-1.11-.67-1.46Z"/>
        <path class="cls-1" d="m65.88,43.42h1.12v8.89h5.59v1.04h-6.71v-9.93Z"/>
        <path class="cls-1" d="m83.9,53.35h-1.21l-1.16-2.62h-5.4l-1.18,2.62h-1.15l4.52-10h1.05l4.52,10Zm-5.06-8.68l-2.27,5.06h4.52l-2.25-5.06Z"/>
        <path class="cls-1" d="m93.16,43.42h1.09v9.93h-.89l-6.41-8.14v8.14h-1.09v-9.93h1.05l6.25,7.96v-7.96Z"/>
        <path class="cls-1" d="m105.4,50.34c-.26.61-.62,1.14-1.08,1.58-.47.44-1.03.79-1.67,1.05s-1.36.38-2.13.38h-3.45v-9.93h3.45c.77,0,1.49.13,2.13.38s1.21.6,1.67,1.04c.47.44.83.97,1.08,1.57.26.61.38,1.26.38,1.96s-.13,1.35-.38,1.96Zm-1.07-3.48c-.19-.48-.47-.9-.82-1.26s-.79-.63-1.3-.84c-.51-.2-1.08-.3-1.7-.3h-2.33v7.86h2.33c.62,0,1.19-.1,1.7-.3.51-.2.94-.48,1.3-.83s.63-.77.82-1.24c.19-.47.29-.99.29-1.55s-.1-1.06-.29-1.55Z"/>
        <path class="cls-1" d="m117.47,50.34c-.25.62-.59,1.17-1.04,1.64-.44.47-.98.85-1.6,1.13-.62.28-1.31.42-2.07.42s-1.44-.14-2.06-.41c-.62-.27-1.15-.65-1.6-1.11-.44-.47-.79-1.01-1.03-1.63-.24-.62-.36-1.27-.36-1.96s.12-1.34.37-1.96c.25-.62.59-1.17,1.04-1.64.44-.47.98-.85,1.6-1.13.62-.28,1.31-.42,2.07-.42s1.44.14,2.06.41,1.15.65,1.6,1.11c.44.47.79,1.01,1.03,1.63.24.62.36,1.27.36,1.96s-.12,1.35-.37,1.96Zm-1.08-3.54c-.19-.5-.47-.94-.82-1.3-.35-.37-.76-.66-1.24-.88-.48-.22-1-.33-1.57-.33s-1.09.11-1.57.32c-.48.21-.89.5-1.23.87s-.61.8-.8,1.3-.29,1.03-.29,1.6.1,1.1.29,1.6c.19.5.47.94.82,1.3s.76.66,1.24.88,1,.33,1.57.33,1.09-.11,1.57-.32c.48-.21.89-.5,1.23-.87s.61-.8.8-1.3c.19-.5.29-1.03.29-1.6s-.1-1.1-.29-1.6Z"/>
      </g>
      <g>
        <path class="cls-1" d="m51.79,107.83l-.7-4.53-2.03-12.77-.38-2.32c-.09-.41-.29-.67-.61-.81h3.31c-.26.2-.38.44-.35.75v.06l.06.38.2,1.25,2.03,12.71,1.65-8.82v-.06l.23-1.28.73-3.95c.03-.12.06-.2.06-.23v-.12c0-.26-.06-.49-.17-.7h2c-.26.2-.46.44-.61.75v.06l-.61,3.22-.55,3.05-.49,2.5-1.71,9.17-.29,1.68h-1.77Z"/>
        <path class="cls-1" d="m60.06,107.77c.35-.2.55-.49.61-.81v-18.72c-.06-.35-.26-.61-.61-.81h3.51c-.29.17-.49.44-.58.75v18.78c.06.32.26.58.58.81h-3.51Z"/>
        <path class="cls-1" d="m65.83,107.74c.35-.2.55-.49.61-.81v-18.66c-.06-.35-.26-.61-.61-.81h3.51s-.06.03-.09.06c-.03.03-.06.03-.09.06-.2.12-.35.29-.41.52v.03s-.03.06-.03.09v18.37h5.4c.09-.06.17-.12.26-.17.09-.06.15-.15.23-.23.03-.03.06-.03.09-.06,0-.03.03-.06.06-.09.09-.15.2-.29.29-.44.09-.15.15-.29.17-.49h.32v2.64h-9.72Z"/>
        <path class="cls-1" d="m77.73,107.74c.35-.2.55-.49.61-.81v-18.66c-.06-.35-.26-.61-.61-.81h3.51s-.06.03-.09.06c-.03.03-.06.03-.09.06-.2.12-.35.29-.41.52v.03s-.03.06-.03.09v18.37h5.4c.09-.06.17-.12.26-.17.09-.06.15-.15.23-.23.03-.03.06-.03.09-.06,0-.03.03-.06.06-.09.09-.15.2-.29.29-.44.09-.15.15-.29.17-.49h.32v2.64h-9.72Z"/>
        <path class="cls-1" d="m91.51,107.74h-1.92c.29-.15.46-.35.52-.67l.03-.09,3.25-17.61.03-.17.26-1.36.03-.15v-.2c0-.06-.03-.12-.06-.17h2.03l3.08,19.27.06.41.03.12s0,.06.03.09v.09c.15.23.29.38.49.46h-3.05c.09-.15.15-.26.17-.41.03-.15.03-.29,0-.44l-.15-.9-.55-3.4h-3.69l-.78,4.38-.03.03c-.03.29.03.52.2.73Zm2.61-15.82l-1.77,9.58h3.28l-1.51-9.58Z"/>
        <path class="cls-1" d="m102.91,107.74h-1.22v-5.11h1.22v1.54c.03.09.03.17.06.26.03.09.03.17.06.26l.09.17c.23.49.61.9,1.13,1.22.49.32,1.07.46,1.74.46.41,0,.81-.09,1.19-.23s.7-.38.96-.64.49-.55.67-.9c.15-.35.23-.73.23-1.13,0-.2-.03-.44-.09-.64-.03-.2-.09-.32-.12-.38-.03-.09-.09-.17-.12-.26-.06-.06-.12-.12-.14-.2-.15-.23-.29-.46-.46-.67v-.03c-.09-.09-.15-.15-.17-.23-.06-.06-.12-.12-.15-.15l-.14-.15c-.23-.26-.49-.52-.78-.78-.32-.32-.61-.61-.87-.87-.26-.26-.52-.49-.75-.7-.03-.03-.09-.09-.12-.12s-.09-.06-.12-.09c-.38-.35-.73-.7-1.04-1.04s-.58-.7-.78-1.04c-.15-.2-.29-.44-.44-.67-.14-.2-.26-.44-.38-.64-.2-.38-.38-.81-.52-1.25-.14-.44-.2-.87-.2-1.36v-.2c0-.67.09-1.28.26-1.86.12-.29.26-.58.46-.9,0-.03.03-.09.06-.12.03-.03.09-.12.2-.23.29-.32.55-.58.81-.78l.17-.09c.32-.2.67-.38,1.1-.52s.93-.2,1.48-.2h.12c.17,0,.29,0,.38.03.7.03,1.25.15,1.65.35.41.2.73.38.93.55.17.03.29.06.35.03.15,0,.26-.2.32-.58h1.02v4.73h-1.02c.03-.84-.06-1.54-.26-2.12-.03-.03-.03-.09-.03-.12-.03-.03-.03-.06-.06-.09-.09-.26-.2-.49-.41-.75-.26-.38-.64-.67-1.07-.9-.46-.2-.96-.32-1.48-.32-.38,0-.7.03-.99.12-.67.17-1.19.49-1.63.99-.44.49-.64,1.04-.64,1.68.03.06.03.12.03.17,0,.09,0,.15.03.2.09.41.23.81.49,1.19l.06.06s0,.03.03.06c.32.52.75,1.04,1.31,1.6.06.06.12.09.15.12.29.26.55.52.81.75l.67.7c.17.17.35.35.52.49.17.17.35.35.49.52.61.61,1.13,1.19,1.57,1.74.44.55.78,1.1,1.07,1.6.03.09.09.17.12.23.03.09.09.15.12.23.17.32.32.67.44,1.04.09.38.15.78.15,1.16,0,.41-.06.84-.15,1.28-.09.2-.17.41-.26.61-.09.2-.2.44-.35.64-.2.32-.49.67-.87,1.02-.03.03-.06.06-.09.06-.44.38-.93.67-1.48.87s-1.16.32-1.77.32c-.55,0-1.04-.09-1.54-.26-.49-.14-.93-.38-1.33-.64-.09-.03-.17-.03-.23-.06-.06,0-.12,0-.17.03-.12,0-.2.09-.26.23v.7Z"/>
      </g>
      <g>
        <polygon class="cls-1" points="69.5 27.88 69.19 17.81 73.41 27.35 69.5 27.88"/>
        <polygon class="cls-1" points="52.76 33.08 47.96 23.7 56.21 31.57 52.76 33.08"/>
        <polygon class="cls-1" points="39.38 42.33 30.65 34.78 41.93 40.01 39.38 42.33"/>
        <polygon class="cls-1" points="119.03 40.01 130.31 34.77 121.59 42.33 119.03 40.01"/>
        <polygon class="cls-1" points="104.76 31.57 113 23.7 108.2 33.08 104.76 31.57"/>
        <g>
          <polygon class="cls-1" points="78.5 27.01 80.48 0 82.47 27.01 78.5 27.01"/>
          <polygon class="cls-1" points="60.83 29.92 50.58 4.02 64.57 28.88 60.83 29.92"/>
          <polygon class="cls-1" points="45.54 37.26 24.29 15.59 48.59 35.31 45.54 37.26"/>
          <polygon class="cls-1" points="112.38 35.31 136.68 15.59 115.43 37.26 112.38 35.31"/>
          <polygon class="cls-1" points="96.39 28.88 110.38 4.02 100.13 29.92 96.39 28.88"/>
        </g>
        <polygon class="cls-1" points="87.55 27.35 91.78 17.81 91.47 27.88 87.55 27.35"/>
      </g>
    </g>
  </g>
</svg>